<?xml version="1.0" encoding="utf-8"?>
<!-- Generator: Adobe Illustrator 27.4.0, SVG Export Plug-In . SVG Version: 6.00 Build 0)  -->
<svg version="1.1" id="圖層_1" xmlns="http://www.w3.org/2000/svg" xmlns:xlink="http://www.w3.org/1999/xlink" x="0px" y="0px"
	 viewBox="0 0 65.6 82" style="enable-background:new 0 0 65.6 82;" xml:space="preserve">
<style type="text/css">
	.st0{fill:#FFB750;}
	.st1{fill:#FFFFFF;}
	.st2{fill:#FF6329;}
	.st3{fill:#1A1A1A;}
</style>
<g>
	<g>
		<circle class="st0" cx="32.8" cy="49.2" r="32.8"/>
		<circle class="st1" cx="32.8" cy="49.2" r="20.5"/>
		<path class="st2" d="M34.16,1.87c-4.11,2.14-6.72,5.71-7.51,9.6c4.14,1.34,8.88,1.09,12.99-1.05c4.11-2.13,6.72-5.71,7.51-9.61
			C43.01-0.51,38.27-0.26,34.16,1.87"/>
		<g>
			<path class="st3" d="M22.55,36.49v6.56c0,1.13,0.92,2.05,2.05,2.05s2.05-0.92,2.05-2.05v-6.56H22.55z"/>
			<path class="st3" d="M40.99,36.49h-2.05v8.61h2.05c1.13,0,2.05-0.92,2.05-2.05v-4.51C43.04,37.41,42.12,36.49,40.99,36.49z"/>
			<g>
				<path class="st3" d="M28.69,47.15c0.17,2.21,1.28,4.1,4.1,4.1c2.82,0,3.93-1.89,4.1-4.1H28.69z"/>
			</g>
		</g>
	</g>
</g>
</svg>
