<svg xmlns="http://www.w3.org/2000/svg" width="25" height="25.51" viewBox="0 0 25 25.51">
  <path fill="#4285f4" d="M25 13a11.14 11.14 0 00-.27-2.61h-12v4.73h7a6.21 6.21 0 01-2.6 4.14v.16l3.79 2.93h.26A12.46 12.46 0 0025 13"/>
  <path fill="#34a853" d="M12.76 25.51a12.12 12.12 0 008.44-3.09l-4-3.12a7.58 7.58 0 01-4.42 1.28 7.68 7.68 0 01-7.26-5.3h-.17l-3.94 3.06v.14a12.75 12.75 0 0011.4 7"/>
  <path fill="#fbbc05" d="M5.5 15.28a7.89 7.89 0 01-.43-2.52 8.48 8.48 0 01.41-2.53v-.17L1.49 7h-.13a12.73 12.73 0 000 11.45l4.14-3.2"/>
  <path fill="#eb4335" d="M12.76 4.93a7.09 7.09 0 014.93 1.9l3.6-3.51A12.24 12.24 0 0012.76 0a12.75 12.75 0 00-11.4 7l4.12 3.2a7.73 7.73 0 017.28-5.3"/>
</svg>
